<?xml version="1.0" standalone="no"?>
<svg xmlns:xlink="http://www.w3.org/1999/xlink" id="wave" style="transform:rotate(180deg); transition: 0.3s" viewBox="0 0 1440 490" version="1.1" xmlns="http://www.w3.org/2000/svg"><defs><linearGradient id="sw-gradient-0" x1="0" x2="0" y1="1" y2="0"><stop stop-color="rgba(224, 64, 141, 1)" offset="0%"/><stop stop-color="rgba(224, 64, 141, 1)" offset="100%"/></linearGradient></defs><path style="transform:translate(0, 0px); opacity:1" fill="url(#sw-gradient-0)" d="M0,441L34.3,375.7C68.6,310,137,180,206,179.7C274.3,180,343,310,411,310.3C480,310,549,180,617,147C685.7,114,754,180,823,220.5C891.4,261,960,278,1029,253.2C1097.1,229,1166,163,1234,138.8C1302.9,114,1371,131,1440,155.2C1508.6,180,1577,212,1646,220.5C1714.3,229,1783,212,1851,196C1920,180,1989,163,2057,196C2125.7,229,2194,310,2263,302.2C2331.4,294,2400,196,2469,138.8C2537.1,82,2606,65,2674,114.3C2742.9,163,2811,278,2880,302.2C2948.6,327,3017,261,3086,220.5C3154.3,180,3223,163,3291,163.3C3360,163,3429,180,3497,179.7C3565.7,180,3634,163,3703,179.7C3771.4,196,3840,245,3909,220.5C3977.1,196,4046,98,4114,114.3C4182.9,131,4251,261,4320,269.5C4388.6,278,4457,163,4526,98C4594.3,33,4663,16,4731,57.2C4800,98,4869,196,4903,245L4937.1,294L4937.1,490L4902.9,490C4868.6,490,4800,490,4731,490C4662.9,490,4594,490,4526,490C4457.1,490,4389,490,4320,490C4251.4,490,4183,490,4114,490C4045.7,490,3977,490,3909,490C3840,490,3771,490,3703,490C3634.3,490,3566,490,3497,490C3428.6,490,3360,490,3291,490C3222.9,490,3154,490,3086,490C3017.1,490,2949,490,2880,490C2811.4,490,2743,490,2674,490C2605.7,490,2537,490,2469,490C2400,490,2331,490,2263,490C2194.3,490,2126,490,2057,490C1988.6,490,1920,490,1851,490C1782.9,490,1714,490,1646,490C1577.1,490,1509,490,1440,490C1371.4,490,1303,490,1234,490C1165.7,490,1097,490,1029,490C960,490,891,490,823,490C754.3,490,686,490,617,490C548.6,490,480,490,411,490C342.9,490,274,490,206,490C137.1,490,69,490,34,490L0,490Z"/><defs><linearGradient id="sw-gradient-1" x1="0" x2="0" y1="1" y2="0"><stop stop-color="rgba(152, 51, 80, 1)" offset="0%"/><stop stop-color="rgba(152, 51, 80, 1)" offset="100%"/></linearGradient></defs><path style="transform:translate(0, 50px); opacity:0.9" fill="url(#sw-gradient-1)" d="M0,392L34.3,334.8C68.6,278,137,163,206,163.3C274.3,163,343,278,411,318.5C480,359,549,327,617,261.3C685.7,196,754,98,823,49C891.4,0,960,0,1029,57.2C1097.1,114,1166,229,1234,261.3C1302.9,294,1371,245,1440,228.7C1508.6,212,1577,229,1646,269.5C1714.3,310,1783,376,1851,367.5C1920,359,1989,278,2057,261.3C2125.7,245,2194,294,2263,285.8C2331.4,278,2400,212,2469,179.7C2537.1,147,2606,147,2674,130.7C2742.9,114,2811,82,2880,122.5C2948.6,163,3017,278,3086,269.5C3154.3,261,3223,131,3291,138.8C3360,147,3429,294,3497,343C3565.7,392,3634,343,3703,343C3771.4,343,3840,392,3909,375.7C3977.1,359,4046,278,4114,261.3C4182.9,245,4251,294,4320,261.3C4388.6,229,4457,114,4526,65.3C4594.3,16,4663,33,4731,81.7C4800,131,4869,212,4903,253.2L4937.1,294L4937.1,490L4902.9,490C4868.6,490,4800,490,4731,490C4662.9,490,4594,490,4526,490C4457.1,490,4389,490,4320,490C4251.4,490,4183,490,4114,490C4045.7,490,3977,490,3909,490C3840,490,3771,490,3703,490C3634.3,490,3566,490,3497,490C3428.6,490,3360,490,3291,490C3222.9,490,3154,490,3086,490C3017.1,490,2949,490,2880,490C2811.4,490,2743,490,2674,490C2605.7,490,2537,490,2469,490C2400,490,2331,490,2263,490C2194.3,490,2126,490,2057,490C1988.6,490,1920,490,1851,490C1782.9,490,1714,490,1646,490C1577.1,490,1509,490,1440,490C1371.4,490,1303,490,1234,490C1165.7,490,1097,490,1029,490C960,490,891,490,823,490C754.3,490,686,490,617,490C548.6,490,480,490,411,490C342.9,490,274,490,206,490C137.1,490,69,490,34,490L0,490Z"/></svg>